<mxfile host="app.diagrams.net" agent="Mozilla/5.0 (Windows NT 10.0; Win64; x64) AppleWebKit/537.36 (KHTML, like Gecko) Chrome/127.0.0.0 Safari/537.36" version="24.7.7">
  <diagram name="Page-1" id="P-hKMVtYam3UT6XTQ_Xq">
    <mxGraphModel dx="1290" dy="1657" grid="1" gridSize="10" guides="1" tooltips="1" connect="1" arrows="1" fold="1" page="1" pageScale="1" pageWidth="850" pageHeight="1100" math="0" shadow="0">
      <root>
        <mxCell id="0" />
        <mxCell id="1" parent="0" />
        <mxCell id="5QyX-J9WqejbtlyMFyVM-2" value="Student Interface" style="rounded=0;whiteSpace=wrap;html=1;" parent="1" vertex="1">
          <mxGeometry x="152.5" y="400" width="120" height="60" as="geometry" />
        </mxCell>
        <mxCell id="5QyX-J9WqejbtlyMFyVM-26" value="User authentication/verification" style="ellipse;whiteSpace=wrap;html=1;" parent="1" vertex="1">
          <mxGeometry x="343.25" y="10" width="164.5" height="70" as="geometry" />
        </mxCell>
        <mxCell id="5QyX-J9WqejbtlyMFyVM-28" value="OTP&amp;nbsp; Verification" style="ellipse;whiteSpace=wrap;html=1;" parent="1" vertex="1">
          <mxGeometry x="368" y="210" width="115" height="50" as="geometry" />
        </mxCell>
        <mxCell id="5QyX-J9WqejbtlyMFyVM-29" value="" style="endArrow=classic;html=1;rounded=0;exitX=0.5;exitY=1;exitDx=0;exitDy=0;" parent="1" source="5QyX-J9WqejbtlyMFyVM-26" edge="1">
          <mxGeometry width="50" height="50" relative="1" as="geometry">
            <mxPoint x="390" y="240" as="sourcePoint" />
            <mxPoint x="425" y="130" as="targetPoint" />
          </mxGeometry>
        </mxCell>
        <mxCell id="5QyX-J9WqejbtlyMFyVM-30" value="" style="endArrow=classic;html=1;rounded=0;exitX=0;exitY=0.5;exitDx=0;exitDy=0;" parent="1" source="5QyX-J9WqejbtlyMFyVM-45" target="5QyX-J9WqejbtlyMFyVM-2" edge="1">
          <mxGeometry width="50" height="50" relative="1" as="geometry">
            <mxPoint x="330" y="270" as="sourcePoint" />
            <mxPoint x="440" y="250" as="targetPoint" />
          </mxGeometry>
        </mxCell>
        <mxCell id="5QyX-J9WqejbtlyMFyVM-31" value="" style="endArrow=classic;html=1;rounded=0;exitX=1;exitY=0.5;exitDx=0;exitDy=0;entryX=0;entryY=0.5;entryDx=0;entryDy=0;" parent="1" source="5QyX-J9WqejbtlyMFyVM-45" target="5QyX-J9WqejbtlyMFyVM-32" edge="1">
          <mxGeometry width="50" height="50" relative="1" as="geometry">
            <mxPoint x="530" y="270" as="sourcePoint" />
            <mxPoint x="650" y="300" as="targetPoint" />
          </mxGeometry>
        </mxCell>
        <mxCell id="5QyX-J9WqejbtlyMFyVM-32" value="Faculty Interface" style="rounded=0;whiteSpace=wrap;html=1;" parent="1" vertex="1">
          <mxGeometry x="600" y="400" width="120" height="60" as="geometry" />
        </mxCell>
        <mxCell id="5QyX-J9WqejbtlyMFyVM-33" value="Email Notification" style="ellipse;whiteSpace=wrap;html=1;" parent="1" vertex="1">
          <mxGeometry x="365" y="130" width="120" height="50" as="geometry" />
        </mxCell>
        <mxCell id="5QyX-J9WqejbtlyMFyVM-34" value="" style="endArrow=classic;html=1;rounded=0;exitX=0.5;exitY=1;exitDx=0;exitDy=0;entryX=0.5;entryY=0;entryDx=0;entryDy=0;" parent="1" source="5QyX-J9WqejbtlyMFyVM-33" target="5QyX-J9WqejbtlyMFyVM-28" edge="1">
          <mxGeometry width="50" height="50" relative="1" as="geometry">
            <mxPoint x="480" y="200" as="sourcePoint" />
            <mxPoint x="530" y="150" as="targetPoint" />
          </mxGeometry>
        </mxCell>
        <mxCell id="5QyX-J9WqejbtlyMFyVM-35" value="Project submission/Updation" style="ellipse;whiteSpace=wrap;html=1;" parent="1" vertex="1">
          <mxGeometry x="132.5" y="555" width="160" height="50" as="geometry" />
        </mxCell>
        <mxCell id="5QyX-J9WqejbtlyMFyVM-36" value="" style="endArrow=classic;html=1;rounded=0;exitX=0.5;exitY=1;exitDx=0;exitDy=0;" parent="1" source="5QyX-J9WqejbtlyMFyVM-2" target="5QyX-J9WqejbtlyMFyVM-35" edge="1">
          <mxGeometry width="50" height="50" relative="1" as="geometry">
            <mxPoint x="400" y="510" as="sourcePoint" />
            <mxPoint x="450" y="460" as="targetPoint" />
          </mxGeometry>
        </mxCell>
        <mxCell id="5QyX-J9WqejbtlyMFyVM-37" value="Log-file generation" style="ellipse;whiteSpace=wrap;html=1;" parent="1" vertex="1">
          <mxGeometry x="400" y="540" width="120" height="50" as="geometry" />
        </mxCell>
        <mxCell id="5QyX-J9WqejbtlyMFyVM-38" value="Professor Project Review/Marks Submission" style="ellipse;whiteSpace=wrap;html=1;" parent="1" vertex="1">
          <mxGeometry x="590" y="675" width="140" height="50" as="geometry" />
        </mxCell>
        <mxCell id="5QyX-J9WqejbtlyMFyVM-39" value="Report Generation" style="ellipse;whiteSpace=wrap;html=1;" parent="1" vertex="1">
          <mxGeometry x="810" y="550" width="120" height="50" as="geometry" />
        </mxCell>
        <mxCell id="5QyX-J9WqejbtlyMFyVM-40" value="" style="endArrow=classic;html=1;rounded=0;entryX=0.5;entryY=0;entryDx=0;entryDy=0;exitX=0.5;exitY=1;exitDx=0;exitDy=0;" parent="1" source="5QyX-J9WqejbtlyMFyVM-32" target="5QyX-J9WqejbtlyMFyVM-37" edge="1">
          <mxGeometry width="50" height="50" relative="1" as="geometry">
            <mxPoint x="510" y="480" as="sourcePoint" />
            <mxPoint x="560" y="430" as="targetPoint" />
          </mxGeometry>
        </mxCell>
        <mxCell id="5QyX-J9WqejbtlyMFyVM-41" value="" style="endArrow=classic;html=1;rounded=0;entryX=0.5;entryY=0;entryDx=0;entryDy=0;exitX=0.5;exitY=1;exitDx=0;exitDy=0;" parent="1" source="5QyX-J9WqejbtlyMFyVM-32" target="5QyX-J9WqejbtlyMFyVM-38" edge="1">
          <mxGeometry width="50" height="50" relative="1" as="geometry">
            <mxPoint x="510" y="480" as="sourcePoint" />
            <mxPoint x="560" y="430" as="targetPoint" />
          </mxGeometry>
        </mxCell>
        <mxCell id="5QyX-J9WqejbtlyMFyVM-42" value="" style="endArrow=classic;html=1;rounded=0;entryX=0.5;entryY=0;entryDx=0;entryDy=0;exitX=0.5;exitY=1;exitDx=0;exitDy=0;" parent="1" source="5QyX-J9WqejbtlyMFyVM-32" target="5QyX-J9WqejbtlyMFyVM-39" edge="1">
          <mxGeometry width="50" height="50" relative="1" as="geometry">
            <mxPoint x="650" y="360" as="sourcePoint" />
            <mxPoint x="560" y="430" as="targetPoint" />
          </mxGeometry>
        </mxCell>
        <mxCell id="5QyX-J9WqejbtlyMFyVM-43" value="" style="endArrow=classic;html=1;rounded=0;exitX=0.5;exitY=1;exitDx=0;exitDy=0;" parent="1" source="5QyX-J9WqejbtlyMFyVM-38" target="5QyX-J9WqejbtlyMFyVM-44" edge="1">
          <mxGeometry width="50" height="50" relative="1" as="geometry">
            <mxPoint x="600" y="500" as="sourcePoint" />
            <mxPoint x="650" y="630" as="targetPoint" />
          </mxGeometry>
        </mxCell>
        <mxCell id="5QyX-J9WqejbtlyMFyVM-44" value="Email Notfication to students" style="ellipse;whiteSpace=wrap;html=1;" parent="1" vertex="1">
          <mxGeometry x="600" y="780" width="120" height="50" as="geometry" />
        </mxCell>
        <mxCell id="5QyX-J9WqejbtlyMFyVM-45" value="Interface Redirection" style="ellipse;whiteSpace=wrap;html=1;" parent="1" vertex="1">
          <mxGeometry x="367.5" y="405" width="120" height="50" as="geometry" />
        </mxCell>
        <mxCell id="5QyX-J9WqejbtlyMFyVM-46" value="" style="endArrow=classic;html=1;rounded=0;entryX=0.5;entryY=0;entryDx=0;entryDy=0;exitX=0.5;exitY=1;exitDx=0;exitDy=0;" parent="1" source="5QyX-J9WqejbtlyMFyVM-28" target="5QyX-J9WqejbtlyMFyVM-45" edge="1">
          <mxGeometry width="50" height="50" relative="1" as="geometry">
            <mxPoint x="670" y="330" as="sourcePoint" />
            <mxPoint x="720" y="280" as="targetPoint" />
          </mxGeometry>
        </mxCell>
        <mxCell id="5QyX-J9WqejbtlyMFyVM-47" value="User Database" style="shape=partialRectangle;whiteSpace=wrap;html=1;left=0;right=0;fillColor=none;" parent="1" vertex="1">
          <mxGeometry x="660" y="-260" width="125" height="40" as="geometry" />
        </mxCell>
        <mxCell id="5QyX-J9WqejbtlyMFyVM-49" value="Project Database" style="shape=partialRectangle;whiteSpace=wrap;html=1;left=0;right=0;fillColor=none;" parent="1" vertex="1">
          <mxGeometry x="145" y="680" width="135" height="40" as="geometry" />
        </mxCell>
        <mxCell id="5QyX-J9WqejbtlyMFyVM-50" value="" style="endArrow=none;html=1;rounded=0;" parent="1" edge="1">
          <mxGeometry width="50" height="50" relative="1" as="geometry">
            <mxPoint x="145" y="710" as="sourcePoint" />
            <mxPoint x="146" y="680" as="targetPoint" />
            <Array as="points">
              <mxPoint x="145.5" y="720" />
            </Array>
          </mxGeometry>
        </mxCell>
        <mxCell id="5QyX-J9WqejbtlyMFyVM-51" value="Marks Database" style="shape=partialRectangle;whiteSpace=wrap;html=1;left=0;right=0;fillColor=none;" parent="1" vertex="1">
          <mxGeometry x="850" y="630" width="125" height="40" as="geometry" />
        </mxCell>
        <mxCell id="5QyX-J9WqejbtlyMFyVM-52" value="" style="endArrow=none;html=1;rounded=0;" parent="1" edge="1">
          <mxGeometry width="50" height="50" relative="1" as="geometry">
            <mxPoint x="849.33" y="670" as="sourcePoint" />
            <mxPoint x="849.33" y="630" as="targetPoint" />
          </mxGeometry>
        </mxCell>
        <mxCell id="5QyX-J9WqejbtlyMFyVM-53" value="OTP Database" style="shape=partialRectangle;whiteSpace=wrap;html=1;left=0;right=0;fillColor=none;" parent="1" vertex="1">
          <mxGeometry x="595" y="220" width="125" height="40" as="geometry" />
        </mxCell>
        <mxCell id="5QyX-J9WqejbtlyMFyVM-54" value="" style="endArrow=none;html=1;rounded=0;" parent="1" edge="1">
          <mxGeometry width="50" height="50" relative="1" as="geometry">
            <mxPoint x="595" y="260" as="sourcePoint" />
            <mxPoint x="595" y="220" as="targetPoint" />
          </mxGeometry>
        </mxCell>
        <mxCell id="5QyX-J9WqejbtlyMFyVM-57" value="" style="endArrow=classic;html=1;rounded=0;entryX=0;entryY=0.25;entryDx=0;entryDy=0;" parent="1" target="5QyX-J9WqejbtlyMFyVM-53" edge="1">
          <mxGeometry width="50" height="50" relative="1" as="geometry">
            <mxPoint x="481" y="230" as="sourcePoint" />
            <mxPoint x="720" y="210" as="targetPoint" />
          </mxGeometry>
        </mxCell>
        <mxCell id="5QyX-J9WqejbtlyMFyVM-58" value="" style="endArrow=classic;html=1;rounded=0;entryX=0.998;entryY=0.684;entryDx=0;entryDy=0;entryPerimeter=0;" parent="1" target="5QyX-J9WqejbtlyMFyVM-28" edge="1">
          <mxGeometry width="50" height="50" relative="1" as="geometry">
            <mxPoint x="590" y="244" as="sourcePoint" />
            <mxPoint x="680" y="300" as="targetPoint" />
          </mxGeometry>
        </mxCell>
        <mxCell id="5QyX-J9WqejbtlyMFyVM-59" value="OTP Generation" style="text;html=1;align=center;verticalAlign=middle;whiteSpace=wrap;rounded=0;" parent="1" vertex="1">
          <mxGeometry x="500" y="200" width="90" height="30" as="geometry" />
        </mxCell>
        <mxCell id="5QyX-J9WqejbtlyMFyVM-60" value="OTP Verification" style="text;html=1;align=center;verticalAlign=middle;whiteSpace=wrap;rounded=0;" parent="1" vertex="1">
          <mxGeometry x="480" y="250" width="95" height="30" as="geometry" />
        </mxCell>
        <mxCell id="5QyX-J9WqejbtlyMFyVM-61" value="" style="endArrow=classic;html=1;rounded=0;entryX=0.5;entryY=0;entryDx=0;entryDy=0;exitX=0.5;exitY=1;exitDx=0;exitDy=0;" parent="1" source="5QyX-J9WqejbtlyMFyVM-35" target="5QyX-J9WqejbtlyMFyVM-49" edge="1">
          <mxGeometry width="50" height="50" relative="1" as="geometry">
            <mxPoint x="630" y="400" as="sourcePoint" />
            <mxPoint x="680" y="350" as="targetPoint" />
          </mxGeometry>
        </mxCell>
        <mxCell id="5QyX-J9WqejbtlyMFyVM-62" value="" style="endArrow=classic;html=1;rounded=0;exitX=1;exitY=0.5;exitDx=0;exitDy=0;" parent="1" source="5QyX-J9WqejbtlyMFyVM-38" edge="1">
          <mxGeometry width="50" height="50" relative="1" as="geometry">
            <mxPoint x="610" y="500" as="sourcePoint" />
            <mxPoint x="850" y="650" as="targetPoint" />
          </mxGeometry>
        </mxCell>
        <mxCell id="5QyX-J9WqejbtlyMFyVM-63" value="Log file database" style="shape=partialRectangle;whiteSpace=wrap;html=1;left=0;right=0;fillColor=none;" parent="1" vertex="1">
          <mxGeometry x="368" y="650" width="125" height="40" as="geometry" />
        </mxCell>
        <mxCell id="5QyX-J9WqejbtlyMFyVM-64" value="" style="endArrow=none;html=1;rounded=0;" parent="1" edge="1">
          <mxGeometry width="50" height="50" relative="1" as="geometry">
            <mxPoint x="367.5" y="690" as="sourcePoint" />
            <mxPoint x="367.5" y="650" as="targetPoint" />
          </mxGeometry>
        </mxCell>
        <mxCell id="5QyX-J9WqejbtlyMFyVM-65" value="" style="endArrow=classic;html=1;rounded=0;entryX=0.5;entryY=0;entryDx=0;entryDy=0;exitX=0.5;exitY=1;exitDx=0;exitDy=0;" parent="1" source="5QyX-J9WqejbtlyMFyVM-37" target="5QyX-J9WqejbtlyMFyVM-63" edge="1">
          <mxGeometry width="50" height="50" relative="1" as="geometry">
            <mxPoint x="610" y="440" as="sourcePoint" />
            <mxPoint x="660" y="390" as="targetPoint" />
          </mxGeometry>
        </mxCell>
        <mxCell id="5QyX-J9WqejbtlyMFyVM-69" value="Data upload" style="text;html=1;align=center;verticalAlign=middle;whiteSpace=wrap;rounded=0;" parent="1" vertex="1">
          <mxGeometry x="132.5" y="620" width="60" height="30" as="geometry" />
        </mxCell>
        <mxCell id="5QyX-J9WqejbtlyMFyVM-70" value="Data upload" style="text;html=1;align=center;verticalAlign=middle;whiteSpace=wrap;rounded=0;" parent="1" vertex="1">
          <mxGeometry x="377.5" y="600" width="60" height="30" as="geometry" />
        </mxCell>
        <mxCell id="5QyX-J9WqejbtlyMFyVM-71" value="Data upload" style="text;html=1;align=center;verticalAlign=middle;whiteSpace=wrap;rounded=0;" parent="1" vertex="1">
          <mxGeometry x="740" y="635" width="60" height="30" as="geometry" />
        </mxCell>
        <mxCell id="DyBYl-gSUCOmaVxTaAqi-3" value="if user is student" style="text;html=1;align=center;verticalAlign=middle;whiteSpace=wrap;rounded=0;" parent="1" vertex="1">
          <mxGeometry x="280" y="390" width="80" height="30" as="geometry" />
        </mxCell>
        <mxCell id="DyBYl-gSUCOmaVxTaAqi-5" value="If user is proffessor" style="text;html=1;align=center;verticalAlign=middle;whiteSpace=wrap;rounded=0;" parent="1" vertex="1">
          <mxGeometry x="490" y="390" width="90" height="30" as="geometry" />
        </mxCell>
        <mxCell id="DyBYl-gSUCOmaVxTaAqi-11" value="" style="endArrow=none;html=1;rounded=0;entryX=0;entryY=0.5;entryDx=0;entryDy=0;" parent="1" target="5QyX-J9WqejbtlyMFyVM-28" edge="1">
          <mxGeometry width="50" height="50" relative="1" as="geometry">
            <mxPoint x="260" y="235" as="sourcePoint" />
            <mxPoint x="840" y="60" as="targetPoint" />
          </mxGeometry>
        </mxCell>
        <mxCell id="DyBYl-gSUCOmaVxTaAqi-13" value="Failure of verification" style="text;html=1;align=center;verticalAlign=middle;whiteSpace=wrap;rounded=0;" parent="1" vertex="1">
          <mxGeometry x="150" y="140" width="100" height="30" as="geometry" />
        </mxCell>
        <mxCell id="DyBYl-gSUCOmaVxTaAqi-15" value="" style="endArrow=none;html=1;rounded=0;" parent="1" edge="1">
          <mxGeometry width="50" height="50" relative="1" as="geometry">
            <mxPoint x="260" y="240" as="sourcePoint" />
            <mxPoint x="260" y="40" as="targetPoint" />
          </mxGeometry>
        </mxCell>
        <mxCell id="DyBYl-gSUCOmaVxTaAqi-17" value="Success Verification" style="text;html=1;align=center;verticalAlign=middle;whiteSpace=wrap;rounded=0;" parent="1" vertex="1">
          <mxGeometry x="295" y="310" width="110" height="30" as="geometry" />
        </mxCell>
        <mxCell id="w1BSC0gygDcjTrnXJUE0-2" value="Login" style="ellipse;whiteSpace=wrap;html=1;" vertex="1" parent="1">
          <mxGeometry x="360" y="-100" width="120" height="50" as="geometry" />
        </mxCell>
        <mxCell id="w1BSC0gygDcjTrnXJUE0-3" value="" style="endArrow=classic;html=1;rounded=0;exitX=0.5;exitY=1;exitDx=0;exitDy=0;entryX=0.464;entryY=0.02;entryDx=0;entryDy=0;entryPerimeter=0;" edge="1" parent="1" source="w1BSC0gygDcjTrnXJUE0-2" target="5QyX-J9WqejbtlyMFyVM-26">
          <mxGeometry width="50" height="50" relative="1" as="geometry">
            <mxPoint x="610" y="40" as="sourcePoint" />
            <mxPoint x="660" y="-10" as="targetPoint" />
          </mxGeometry>
        </mxCell>
        <mxCell id="w1BSC0gygDcjTrnXJUE0-4" value="" style="endArrow=none;html=1;rounded=0;exitX=0;exitY=1;exitDx=0;exitDy=0;entryX=0;entryY=0;entryDx=0;entryDy=0;" edge="1" parent="1" source="5QyX-J9WqejbtlyMFyVM-47" target="5QyX-J9WqejbtlyMFyVM-47">
          <mxGeometry width="50" height="50" relative="1" as="geometry">
            <mxPoint x="317.5" y="-200" as="sourcePoint" />
            <mxPoint x="367.5" y="-250" as="targetPoint" />
          </mxGeometry>
        </mxCell>
        <mxCell id="w1BSC0gygDcjTrnXJUE0-9" value="" style="endArrow=classic;html=1;rounded=0;entryX=0.085;entryY=0.283;entryDx=0;entryDy=0;entryPerimeter=0;" edge="1" parent="1">
          <mxGeometry width="50" height="50" relative="1" as="geometry">
            <mxPoint x="260" y="40" as="sourcePoint" />
            <mxPoint x="343.25250000000005" y="39.99999999999994" as="targetPoint" />
          </mxGeometry>
        </mxCell>
        <mxCell id="w1BSC0gygDcjTrnXJUE0-10" value="" style="endArrow=none;html=1;rounded=0;exitX=1;exitY=0.5;exitDx=0;exitDy=0;" edge="1" parent="1">
          <mxGeometry width="50" height="50" relative="1" as="geometry">
            <mxPoint x="220" y="30" as="sourcePoint" />
            <mxPoint x="352.25" y="30" as="targetPoint" />
          </mxGeometry>
        </mxCell>
        <mxCell id="w1BSC0gygDcjTrnXJUE0-11" value="Success authentication" style="text;html=1;align=center;verticalAlign=middle;whiteSpace=wrap;rounded=0;" vertex="1" parent="1">
          <mxGeometry x="437.5" y="90" width="152.5" height="30" as="geometry" />
        </mxCell>
        <mxCell id="w1BSC0gygDcjTrnXJUE0-14" value="Signup" style="ellipse;whiteSpace=wrap;html=1;" vertex="1" parent="1">
          <mxGeometry x="360" y="-280" width="120" height="80" as="geometry" />
        </mxCell>
        <mxCell id="w1BSC0gygDcjTrnXJUE0-15" value="" style="endArrow=classic;html=1;rounded=0;exitX=0.5;exitY=1;exitDx=0;exitDy=0;entryX=0.5;entryY=0;entryDx=0;entryDy=0;" edge="1" parent="1" source="w1BSC0gygDcjTrnXJUE0-14" target="w1BSC0gygDcjTrnXJUE0-2">
          <mxGeometry width="50" height="50" relative="1" as="geometry">
            <mxPoint x="540" y="-70" as="sourcePoint" />
            <mxPoint x="590" y="-120" as="targetPoint" />
          </mxGeometry>
        </mxCell>
        <mxCell id="w1BSC0gygDcjTrnXJUE0-16" value="User" style="rounded=0;whiteSpace=wrap;html=1;" vertex="1" parent="1">
          <mxGeometry x="363" y="-420" width="120" height="60" as="geometry" />
        </mxCell>
        <mxCell id="w1BSC0gygDcjTrnXJUE0-17" value="" style="endArrow=classic;html=1;rounded=0;exitX=0.5;exitY=1;exitDx=0;exitDy=0;" edge="1" parent="1" source="w1BSC0gygDcjTrnXJUE0-16" target="w1BSC0gygDcjTrnXJUE0-14">
          <mxGeometry width="50" height="50" relative="1" as="geometry">
            <mxPoint x="530" y="-210" as="sourcePoint" />
            <mxPoint x="580" y="-260" as="targetPoint" />
          </mxGeometry>
        </mxCell>
        <mxCell id="w1BSC0gygDcjTrnXJUE0-18" value="Entering credentials" style="text;html=1;align=center;verticalAlign=middle;whiteSpace=wrap;rounded=0;" vertex="1" parent="1">
          <mxGeometry x="437.5" y="-340" width="117.5" height="30" as="geometry" />
        </mxCell>
        <mxCell id="w1BSC0gygDcjTrnXJUE0-19" value="If user is new" style="text;html=1;align=center;verticalAlign=middle;whiteSpace=wrap;rounded=0;" vertex="1" parent="1">
          <mxGeometry x="300" y="-340" width="100" height="30" as="geometry" />
        </mxCell>
        <mxCell id="w1BSC0gygDcjTrnXJUE0-20" value="" style="endArrow=classic;html=1;rounded=0;exitX=1;exitY=0.5;exitDx=0;exitDy=0;" edge="1" parent="1" source="w1BSC0gygDcjTrnXJUE0-14">
          <mxGeometry width="50" height="50" relative="1" as="geometry">
            <mxPoint x="530" y="-110" as="sourcePoint" />
            <mxPoint x="660" y="-240" as="targetPoint" />
          </mxGeometry>
        </mxCell>
        <mxCell id="w1BSC0gygDcjTrnXJUE0-21" value="Storing user&#39;s details" style="text;html=1;align=center;verticalAlign=middle;whiteSpace=wrap;rounded=0;" vertex="1" parent="1">
          <mxGeometry x="500" y="-280" width="130" height="30" as="geometry" />
        </mxCell>
        <mxCell id="w1BSC0gygDcjTrnXJUE0-22" value="" style="endArrow=none;html=1;rounded=0;entryX=0;entryY=0.5;entryDx=0;entryDy=0;" edge="1" parent="1" target="w1BSC0gygDcjTrnXJUE0-16">
          <mxGeometry width="50" height="50" relative="1" as="geometry">
            <mxPoint x="260" y="-390" as="sourcePoint" />
            <mxPoint x="580" y="-220" as="targetPoint" />
          </mxGeometry>
        </mxCell>
        <mxCell id="w1BSC0gygDcjTrnXJUE0-23" value="" style="endArrow=none;html=1;rounded=0;" edge="1" parent="1">
          <mxGeometry width="50" height="50" relative="1" as="geometry">
            <mxPoint x="260" y="-70" as="sourcePoint" />
            <mxPoint x="260" y="-390" as="targetPoint" />
          </mxGeometry>
        </mxCell>
        <mxCell id="w1BSC0gygDcjTrnXJUE0-24" value="" style="endArrow=classic;html=1;rounded=0;" edge="1" parent="1" target="w1BSC0gygDcjTrnXJUE0-2">
          <mxGeometry width="50" height="50" relative="1" as="geometry">
            <mxPoint x="260" y="-75" as="sourcePoint" />
            <mxPoint x="580" y="-220" as="targetPoint" />
          </mxGeometry>
        </mxCell>
        <mxCell id="w1BSC0gygDcjTrnXJUE0-25" value="Existing User" style="text;html=1;align=center;verticalAlign=middle;whiteSpace=wrap;rounded=0;" vertex="1" parent="1">
          <mxGeometry x="172.5" y="-270" width="77.5" height="30" as="geometry" />
        </mxCell>
        <mxCell id="w1BSC0gygDcjTrnXJUE0-27" value="" style="endArrow=classic;html=1;rounded=0;entryX=1;entryY=0;entryDx=0;entryDy=0;exitX=0.5;exitY=1;exitDx=0;exitDy=0;" edge="1" parent="1" source="5QyX-J9WqejbtlyMFyVM-47" target="5QyX-J9WqejbtlyMFyVM-26">
          <mxGeometry width="50" height="50" relative="1" as="geometry">
            <mxPoint x="530" y="-80" as="sourcePoint" />
            <mxPoint x="580" y="-130" as="targetPoint" />
          </mxGeometry>
        </mxCell>
        <mxCell id="w1BSC0gygDcjTrnXJUE0-28" value="Data Extraction" style="text;html=1;align=center;verticalAlign=middle;whiteSpace=wrap;rounded=0;" vertex="1" parent="1">
          <mxGeometry x="605" y="-90" width="105" height="30" as="geometry" />
        </mxCell>
        <mxCell id="w1BSC0gygDcjTrnXJUE0-29" value="" style="endArrow=none;html=1;rounded=0;" edge="1" parent="1">
          <mxGeometry width="50" height="50" relative="1" as="geometry">
            <mxPoint x="220" y="30" as="sourcePoint" />
            <mxPoint x="220" y="-50" as="targetPoint" />
          </mxGeometry>
        </mxCell>
        <mxCell id="w1BSC0gygDcjTrnXJUE0-31" value="" style="endArrow=classic;html=1;rounded=0;entryX=0.33;entryY=1.012;entryDx=0;entryDy=0;entryPerimeter=0;" edge="1" parent="1" target="w1BSC0gygDcjTrnXJUE0-2">
          <mxGeometry width="50" height="50" relative="1" as="geometry">
            <mxPoint x="220" y="-50" as="sourcePoint" />
            <mxPoint x="580" y="-90" as="targetPoint" />
          </mxGeometry>
        </mxCell>
        <mxCell id="w1BSC0gygDcjTrnXJUE0-32" value="Authentication Failure" style="text;html=1;align=center;verticalAlign=middle;whiteSpace=wrap;rounded=0;" vertex="1" parent="1">
          <mxGeometry x="90" y="-30" width="120" height="30" as="geometry" />
        </mxCell>
        <mxCell id="w1BSC0gygDcjTrnXJUE0-33" value="" style="endArrow=classic;html=1;rounded=0;entryX=0;entryY=0.5;entryDx=0;entryDy=0;" edge="1" parent="1" target="5QyX-J9WqejbtlyMFyVM-38">
          <mxGeometry width="50" height="50" relative="1" as="geometry">
            <mxPoint x="210" y="780" as="sourcePoint" />
            <mxPoint x="250" y="740" as="targetPoint" />
          </mxGeometry>
        </mxCell>
        <mxCell id="w1BSC0gygDcjTrnXJUE0-34" value="" style="endArrow=none;html=1;rounded=0;entryX=0.5;entryY=1;entryDx=0;entryDy=0;" edge="1" parent="1" target="5QyX-J9WqejbtlyMFyVM-49">
          <mxGeometry width="50" height="50" relative="1" as="geometry">
            <mxPoint x="213" y="780" as="sourcePoint" />
            <mxPoint x="550" y="730" as="targetPoint" />
          </mxGeometry>
        </mxCell>
        <mxCell id="w1BSC0gygDcjTrnXJUE0-35" value="Data Extraction" style="text;html=1;align=center;verticalAlign=middle;whiteSpace=wrap;rounded=0;" vertex="1" parent="1">
          <mxGeometry x="365" y="750" width="152.5" height="30" as="geometry" />
        </mxCell>
        <mxCell id="w1BSC0gygDcjTrnXJUE0-36" value="" style="endArrow=none;html=1;rounded=0;entryX=0.5;entryY=1;entryDx=0;entryDy=0;" edge="1" parent="1" target="5QyX-J9WqejbtlyMFyVM-51">
          <mxGeometry width="50" height="50" relative="1" as="geometry">
            <mxPoint x="913" y="880" as="sourcePoint" />
            <mxPoint x="500" y="710" as="targetPoint" />
          </mxGeometry>
        </mxCell>
        <mxCell id="w1BSC0gygDcjTrnXJUE0-37" value="" style="endArrow=none;html=1;rounded=0;" edge="1" parent="1">
          <mxGeometry width="50" height="50" relative="1" as="geometry">
            <mxPoint x="80" y="880" as="sourcePoint" />
            <mxPoint x="910" y="880" as="targetPoint" />
          </mxGeometry>
        </mxCell>
        <mxCell id="w1BSC0gygDcjTrnXJUE0-39" value="" style="endArrow=none;html=1;rounded=0;" edge="1" parent="1">
          <mxGeometry width="50" height="50" relative="1" as="geometry">
            <mxPoint x="82.5" y="880" as="sourcePoint" />
            <mxPoint x="80" y="580" as="targetPoint" />
          </mxGeometry>
        </mxCell>
        <mxCell id="w1BSC0gygDcjTrnXJUE0-40" value="" style="endArrow=classic;html=1;rounded=0;entryX=0;entryY=0.5;entryDx=0;entryDy=0;" edge="1" parent="1" target="5QyX-J9WqejbtlyMFyVM-35">
          <mxGeometry width="50" height="50" relative="1" as="geometry">
            <mxPoint x="80" y="580" as="sourcePoint" />
            <mxPoint x="130" y="540" as="targetPoint" />
          </mxGeometry>
        </mxCell>
        <mxCell id="w1BSC0gygDcjTrnXJUE0-41" value="Data Extraction" style="text;html=1;align=center;verticalAlign=middle;whiteSpace=wrap;rounded=0;" vertex="1" parent="1">
          <mxGeometry x="430" y="890" width="130" height="30" as="geometry" />
        </mxCell>
      </root>
    </mxGraphModel>
  </diagram>
</mxfile>
